<svg xmlns="http://www.w3.org/2000/svg" viewBox="0 0 400 600" width="100%" height="100%">
  <defs>
    <linearGradient id="fallbackGrad" x1="0%" y1="0%" x2="100%" y2="100%">
      <stop offset="0%" style="stop-color:#2a2421;stop-opacity:1" />
      <stop offset="100%" style="stop-color:#14110f;stop-opacity:1" />
    </linearGradient>
  </defs>
  <rect width="400" height="600" fill="url(#fallbackGrad)" />
  <rect x="20" y="20" width="360" height="560" fill="none" stroke="#5c524d" stroke-width="2" rx="10" />
  
  <g transform="translate(160, 200) scale(1.5)" opacity="0.4">
    <path d="M12 4.5C7 4.5 2.73 7.61 1 12c1.73 4.39 6 7.5 11 7.5s9.27-3.11 11-7.5c-1.73-4.39-6-7.5-11-7.5zM12 17c-2.76 0-5-2.24-5-5s2.24-5 5-5 5 2.24 5 5-2.24 5-5 5zm0-8c-1.66 0-3 1.34-3 3s1.34 3 3 3 3-1.34 3-3-1.34-3-3-3z" fill="#f3e5ab" />
    <path d="M2 2l20 20" stroke="#f3e5ab" stroke-width="2" />
  </g>

  <text x="200" y="340" text-anchor="middle" font-family="'Inter', sans-serif" font-weight="600" font-size="18" fill="#f3e5ab" opacity="0.6" letter-spacing="1">NO COVER IMAGE</text>
  <text x="200" y="370" text-anchor="middle" font-family="'Inter', sans-serif" font-size="13" fill="#a89a93" opacity="0.6" letter-spacing="0.5">Official cover not available</text>
  
  <path d="M170 420 L230 420" stroke="#5c524d" stroke-width="1.5" />
  <text x="200" y="520" text-anchor="middle" font-family="'Inter', sans-serif" font-size="9" fill="#5c524d" letter-spacing="1">BOOKSTORE POS</text>
</svg>
